# xmcd CD database file
#
# Track frame offsets:
#	150
#	20361
#	35058
#	62783
#	77458
#	91314
#	109450
#	128090
#	148067
#	165333
#	189812
#	218166
#
# Disc length: 3158 seconds
#
# Revision: 1
# Processed by: cddbd v1.5.1PL0 Copyright (c) Steve Scherf et al.
# Submitted via: CDex 1.51
#
DISCID=9c0c540c
DTITLE=John Pearson's Blues and Beyond - Rhythm Oil
DYEAR=2000
DGENRE=Blues
TTITLE0=Let's Go Home
TTITLE1=Rhythm Oil
TTITLE2=Look Down The Road
TTITLE3=The Hanging Gale
TTITLE4=As I Went Down The Railroad Track
TTITLE5=On My Way Down Home
TTITLE6=Way Downtown
TTITLE7=Mortality Drag (Cigarette Blues)
TTITLE8=East St. Louis Fare Thee Well
TTITLE9=Streamline Train
TTITLE10=Don't Take Everybody To Be Your Friend
TTITLE11=Island Sunrise
EXTD=YEAR: 2000
EXTT0=
EXTT1=
EXTT2=
EXTT3=
EXTT4=
EXTT5=
EXTT6=
EXTT7=
EXTT8=
EXTT9=
EXTT10=
EXTT11=
PLAYORDER=
